<?xml version="1.0" encoding="utf-8"?>
<!-- Generator: Adobe Illustrator 22.0.1, SVG Export Plug-In . SVG Version: 6.00 Build 0)  -->
<svg version="1.1" id="Layer_1" xmlns="http://www.w3.org/2000/svg" xmlns:xlink="http://www.w3.org/1999/xlink" x="0px" y="0px"
	 viewBox="0 0 61.9 60.8" style="enable-background:new 0 0 61.9 60.8;" xml:space="preserve">
<style type="text/css">
	.st0{fill:#333333;}
</style>
<g>
	<g>
		<path class="st0" d="M6.2,37.6h1.1l3.6,17.2c0.1,0.4,0.5,0.7,0.9,0.7h8.5c1.6,0,2.8-1.3,2.8-2.8c0-1.5-1.2-2.7-2.6-2.8L19,43.2
			h2.3c0.5,0,0.9-0.4,0.9-0.9V38c4.9,1.9,9.4,4.8,13,8.6l3,3.2c0.2,1.8,1.9,3.1,3.7,2.9c1.6-0.2,2.9-1.6,2.9-3.3V34.6l4.9-0.8
			c0.5-0.1,0.8-0.5,0.8-0.9v-7.5c0-0.5-0.3-0.9-0.8-0.9l-4.9-0.8V8.8c0-1.8-1.5-3.3-3.3-3.3c-1.7,0-3.1,1.2-3.3,2.9l-3,3.2
			c-3.9,4.1-8.8,7.2-14.1,9H6.2c-2.6,0-4.7,2.1-4.7,4.7v7.5C1.5,35.5,3.6,37.6,6.2,37.6z M19.8,51.7h0.6c0.5,0,0.9,0.4,0.9,0.9
			c0,0.5-0.4,0.9-0.9,0.9h-7.7l-3.4-16h6.6l3,13.4C19,51.4,19.3,51.7,19.8,51.7z M20.3,41.4h-1.7l-0.9-3.8h2.6V41.4z M48.6,26.1v5.9
			l-3.8,0.6v-7.2L48.6,26.1z M41.6,7.4C42.3,7.4,43,8,43,8.8v40.5c0,0.8-0.6,1.4-1.4,1.4s-1.4-0.6-1.4-1.4V8.8
			C40.1,8,40.8,7.4,41.6,7.4z M36.6,12.9l1.6-1.7V47l-1.6-1.7c-4-4.2-8.9-7.4-14.4-9.3V22.2C27.7,20.3,32.6,17.1,36.6,12.9z
			 M20.3,35.7H9V22.5h11.3V35.7z M3.4,25.3c0-1.6,1.3-2.8,2.8-2.8h0.9v13.2H6.2c-1.6,0-2.8-1.3-2.8-2.8V25.3z"/>
		<rect x="10.9" y="29.1" class="st0" width="1.9" height="3.8"/>
		<rect x="14.7" y="29.1" class="st0" width="1.9" height="3.8"/>
		
			<rect x="52.3" y="23.1" transform="matrix(0.9806 -0.1961 0.1961 0.9806 -3.6354 11.2947)" class="st0" width="5.8" height="1.9"/>
		<rect x="49.1" y="4.1" transform="matrix(0.7071 -0.7071 0.7071 0.7071 12.1819 39.5259)" class="st0" width="9.3" height="1.9"/>
		<rect x="50.9" y="13.1" transform="matrix(0.8683 -0.4961 0.4961 0.8683 0.2605 29.0084)" class="st0" width="7.6" height="1.9"/>
		
			<rect x="54.3" y="31.5" transform="matrix(0.1961 -0.9806 0.9806 0.1961 10.6835 81.7814)" class="st0" width="1.9" height="5.8"/>
		
			<rect x="52.9" y="48.7" transform="matrix(0.7071 -0.7071 0.7071 0.7071 -21.9462 53.6672)" class="st0" width="1.9" height="9.3"/>
		
			<rect x="53.8" y="40.6" transform="matrix(0.4961 -0.8682 0.8682 0.4961 -10.9363 69.8899)" class="st0" width="1.9" height="7.6"/>
		<path class="st0" d="M36,18.6l-1.2-1.4c-0.4,0.4-0.9,0.7-1.4,1.1l1.1,1.5C35.1,19.4,35.6,19,36,18.6z"/>
		<path class="st0" d="M33,20.9L32,19.3c-2.3,1.6-4.7,2.9-7.3,4l0.7,1.7C28.1,23.9,30.7,22.5,33,20.9z"/>
	</g>
</g>
</svg>
