<?xml version="1.0" encoding="utf-8"?>
<!-- Generator: Adobe Illustrator 22.0.1, SVG Export Plug-In . SVG Version: 6.00 Build 0)  -->
<svg version="1.1" id="Layer_1" xmlns="http://www.w3.org/2000/svg" xmlns:xlink="http://www.w3.org/1999/xlink" x="0px" y="0px"
	 viewBox="0 0 54 54" style="enable-background:new 0 0 54 54;" xml:space="preserve">
<style type="text/css">
	.st0{fill:#333333;}
</style>
<g>
	<g>
		<path class="st0" d="M2.2,2.3h25.6v7.1c0,0.5,0.4,0.9,0.9,0.9h7.1v2.6h1.8V9.4c0,0,0,0,0-0.1c0-0.1,0-0.2,0-0.2c0,0,0-0.1,0-0.1
			c0-0.1-0.1-0.2-0.2-0.3l-8-7.9c-0.1-0.1-0.2-0.1-0.3-0.2c0,0-0.1,0-0.1,0c-0.1,0-0.2,0-0.2,0c0,0,0,0-0.1,0H1.3
			C0.8,0.6,0.4,1,0.4,1.4v51.2c0,0.5,0.4,0.9,0.9,0.9h13.2v-1.8H2.2V2.3z M34.5,8.5h-4.9V3.6L34.5,8.5z"/>
		<path class="st0" d="M52.6,14.7H27.8c-0.5,0-0.9,0.4-0.9,0.9v14.1c0,0.5,0.4,0.9,0.9,0.9h24.7c0.5,0,0.9-0.4,0.9-0.9V15.6
			C53.4,15.1,53,14.7,52.6,14.7z M51.7,28.8h-23V16.5h23V28.8z"/>
		<path class="st0" d="M52.6,32.4H17.2c-0.5,0-0.9,0.4-0.9,0.9v19.4c0,0.5,0.4,0.9,0.9,0.9h35.3c0.5,0,0.9-0.4,0.9-0.9V33.2
			C53.4,32.8,53,32.4,52.6,32.4z M49.5,34.1l-13.8,8.7l-15.2-8.7H49.5z M18.1,51.8v-17l17.2,9.8c0.1,0.1,0.3,0.1,0.4,0.1
			c0.2,0,0.3,0,0.5-0.1l15.4-9.7v16.9H18.1z"/>
		<rect x="44.6" y="20" class="st0" width="4.4" height="1.8"/>
		<rect x="39.3" y="23.5" class="st0" width="9.7" height="1.8"/>
		<path class="st0" d="M34,25.3c1.5,0,2.7-1.2,2.7-2.6S35.5,20,34,20s-2.6,1.2-2.6,2.6S32.5,25.3,34,25.3z M34,21.8
			c0.5,0,0.9,0.4,0.9,0.9s-0.4,0.9-0.9,0.9c-0.5,0-0.9-0.4-0.9-0.9S33.5,21.8,34,21.8z"/>
		<rect x="5.7" y="5.9" class="st0" width="5.3" height="1.8"/>
		<rect x="5.7" y="10.3" class="st0" width="16.8" height="1.8"/>
		<rect x="5.7" y="16.5" class="st0" width="10.6" height="1.8"/>
		<rect x="5.7" y="21.8" class="st0" width="16.8" height="1.8"/>
		<rect x="5.7" y="27.1" class="st0" width="16.8" height="1.8"/>
		<rect x="5.7" y="32.4" class="st0" width="7.9" height="1.8"/>
		<rect x="5.7" y="37.7" class="st0" width="7.9" height="1.8"/>
		<rect x="5.7" y="43" class="st0" width="7.9" height="1.8"/>
	</g>
</g>
</svg>
