<?xml version="1.0" encoding="utf-8"?>
<!-- Generator: Adobe Illustrator 22.0.1, SVG Export Plug-In . SVG Version: 6.00 Build 0)  -->
<svg version="1.1" id="Layer_1" xmlns="http://www.w3.org/2000/svg" xmlns:xlink="http://www.w3.org/1999/xlink" x="0px" y="0px"
	 viewBox="0 0 80.4 54" style="enable-background:new 0 0 80.4 54;" xml:space="preserve">
<style type="text/css">
	.st0{fill:#333333;}
</style>
<g>
	<g>
		<path class="st0" d="M6.3,52.5h62.8c2.9,0,5.2-2.3,5.2-5.2v-3.6c0-0.6-0.5-1.1-1.1-1.1h-4.8v-4.2c0-0.6-0.5-1.1-1.1-1.1
			s-1.1,0.5-1.1,1.1v4.2h-3.2v-4.2c0-0.6-0.5-1.1-1.1-1.1s-1.1,0.5-1.1,1.1v4.2H14.5V15.5c0-0.7,0.6-1.3,1.3-1.3h21.9
			c0.6,0,1.1-0.5,1.1-1.1S38.3,12,37.7,12H15.9c-1.9,0-3.5,1.6-3.5,3.5v27.1H9.2V13.3c0-2.7,2.2-5,5-5h23.6c0.6,0,1.1-0.5,1.1-1.1
			s-0.5-1.1-1.1-1.1H14.1C10.2,6.2,7,9.4,7,13.3v29.3H2.2c-0.6,0-1.1,0.5-1.1,1.1v3.6C1.1,50.2,3.5,52.5,6.3,52.5z M3.3,44.8h4.8
			h5.3H62h5.3h4.8v2.5c0,1.7-1.4,3.1-3.1,3.1H6.3c-1.7,0-3.1-1.4-3.1-3.1V44.8z"/>
		<path class="st0" d="M32.7,48.6h10c0.6,0,1.1-0.5,1.1-1.1s-0.5-1.1-1.1-1.1h-10c-0.6,0-1.1,0.5-1.1,1.1S32.1,48.6,32.7,48.6z"/>
		<path class="st0" d="M23.4,17v1.4c0,0.6,0.5,1.1,1.1,1.1c0.6,0,1.1-0.5,1.1-1.1V17c0-0.6-0.5-1.1-1.1-1.1
			C23.8,15.9,23.4,16.4,23.4,17z"/>
		<path class="st0" d="M19.9,17v6.5c0,0.6,0.5,1.1,1.1,1.1c0.6,0,1.1-0.5,1.1-1.1V17c0-0.6-0.5-1.1-1.1-1.1
			C20.4,15.9,19.9,16.4,19.9,17z"/>
		<path class="st0" d="M16.5,17v2.7c0,0.6,0.5,1.1,1.1,1.1c0.6,0,1.1-0.5,1.1-1.1V17c0-0.6-0.5-1.1-1.1-1.1
			C17,15.9,16.5,16.4,16.5,17z"/>
		<path class="st0" d="M63.3,35.3c0.1,0.1,0.3,0.1,0.5,0.1c0.3,0,0.6-0.1,0.8-0.3l6-6c0.1-0.1,0.3-0.2,0.5-0.2h3
			c2.9,0,5.2-2.4,5.2-5.2V6.7c0-2.9-2.4-5.2-5.2-5.2H47.3c-2.9,0-5.2,2.4-5.2,5.2v16.8c0,2.9,2.4,5.2,5.2,5.2h14.9
			c0.2,0,0.4,0.2,0.4,0.4v4.9C62.6,34.6,62.9,35.1,63.3,35.3z M62.2,26.6H47.3c-1.7,0-3.1-1.4-3.1-3.1V6.7c0-1.7,1.4-3.1,3.1-3.1
			h26.8c1.7,0,3.1,1.4,3.1,3.1v16.8c0,1.7-1.4,3.1-3.1,3.1h-3c-0.8,0-1.5,0.3-2,0.8l-4.4,4.4v-2.6C64.8,27.8,63.6,26.6,62.2,26.6z"
			/>
		<path class="st0" d="M50.1,11.8c-1.7,0-3,1.4-3,3s1.4,3,3,3s3-1.4,3-3S51.7,11.8,50.1,11.8z M50.1,15.7c-0.5,0-0.9-0.4-0.9-0.9
			c0-0.5,0.4-0.9,0.9-0.9s0.9,0.4,0.9,0.9C50.9,15.3,50.6,15.7,50.1,15.7z"/>
		<path class="st0" d="M60.7,11.8c-1.7,0-3,1.4-3,3s1.4,3,3,3s3-1.4,3-3S62.4,11.8,60.7,11.8z M60.7,15.7c-0.5,0-0.9-0.4-0.9-0.9
			c0-0.5,0.4-0.9,0.9-0.9s0.9,0.4,0.9,0.9C61.6,15.3,61.2,15.7,60.7,15.7z"/>
		<path class="st0" d="M71.3,17.9c1.7,0,3-1.4,3-3s-1.4-3-3-3s-3,1.4-3,3S69.6,17.9,71.3,17.9z M71.3,14c0.5,0,0.9,0.4,0.9,0.9
			c0,0.5-0.4,0.9-0.9,0.9s-0.9-0.4-0.9-0.9C70.4,14.3,70.8,14,71.3,14z"/>
	</g>
</g>
</svg>
